<mxfile host="app.diagrams.net" modified="2023-09-14T15:03:31.855Z" agent="Mozilla/5.0 (Windows NT 10.0; Win64; x64) AppleWebKit/537.36 (KHTML, like Gecko) Chrome/116.0.0.0 Safari/537.36" version="21.7.5" etag="afJt7h3259dr8qExj-l6" type="github">
  <diagram name="Page-1" id="70ihFsbMTA-dO2Qsa2-X">
    <mxGraphModel>
      <root>
        <mxCell id="0" />
        <mxCell id="1" parent="0" />
      </root>
    </mxGraphModel>
  </diagram>
</mxfile>
